<?xml version="1.0" standalone="no"?>
<!DOCTYPE svg PUBLIC "-//W3C//DTD SVG 20010904//EN"
 "http://www.w3.org/TR/2001/REC-SVG-20010904/DTD/svg10.dtd">
<svg version="1.0" xmlns="http://www.w3.org/2000/svg"
 width="1024.000000pt" height="1024.000000pt" viewBox="0 0 1024.000000 1024.000000"
 preserveAspectRatio="xMidYMid meet">
<metadata>
Created by potrace 1.16, written by Peter Selinger 2001-2019
</metadata>
<g transform="translate(0.000000,1024.000000) scale(0.100000,-0.100000)"
fill="#000000" stroke="none">
<path d="M0 5120 l0 -5120 5120 0 5120 0 0 5120 0 5120 -5120 0 -5120 0 0
-5120z m3905 3550 c43 -84 61 -110 76 -110 86 0 125 -107 57 -154 -34 -24 -66
-19 -99 13 -32 32 -35 49 -18 96 10 28 7 40 -40 133 -28 56 -51 108 -51 117 0
36 23 7 75 -95z m1275 25 c0 -31 38 -124 70 -170 49 -71 126 -119 241 -149
l54 -13 -60 -13 c-164 -34 -263 -127 -302 -286 l-17 -69 -12 55 c-36 178 -139
270 -339 306 l-40 7 59 13 c169 40 291 164 322 328 4 27 9 34 15 24 5 -7 9
-22 9 -33z m1158 -228 c41 -85 -67 -145 -116 -65 -16 26 -15 30 3 63 17 33 22
36 59 33 34 -2 43 -8 54 -31z m-2112 -288 c28 -27 36 -66 19 -106 -36 -85
-167 -65 -181 27 -6 39 21 84 60 101 30 12 76 2 102 -22z m2743 -97 c52 -28
74 -74 67 -147 -8 -92 -115 -391 -148 -411 -5 -3 -26 7 -46 22 -20 15 -38 28
-40 30 -2 1 13 39 32 85 40 98 62 194 52 232 -16 66 -113 72 -272 16 -100 -35
-299 -131 -338 -163 l-26 -21 118 -72 c140 -87 250 -173 367 -289 72 -71 84
-87 76 -103 -6 -10 -7 -22 -3 -26 4 -3 1 -5 -7 -3 -7 2 -15 -2 -18 -8 -2 -6 3
-11 12 -11 8 0 16 4 16 9 1 4 2 12 3 17 2 16 14 23 26 16 8 -5 3 -17 -16 -36
-15 -16 -24 -29 -18 -29 5 0 18 -13 28 -28 11 -15 -45 36 -125 113 -246 237
-464 372 -784 481 -252 87 -574 128 -824 104 -476 -44 -920 -233 -1281 -546
-351 -303 -566 -663 -674 -1125 -26 -108 -56 -312 -56 -375 0 -27 -4 -34 -19
-34 -10 0 -33 -3 -51 -6 l-32 -7 7 99 c18 266 72 499 168 722 l39 93 -20 22
c-58 64 -252 398 -252 434 0 8 91 57 94 51 1 -2 12 -25 25 -53 51 -110 191
-335 209 -335 4 0 23 26 41 58 62 103 173 252 249 333 41 43 72 85 69 92 -11
28 -397 176 -506 193 -23 4 -41 10 -41 15 0 13 101 90 110 84 5 -3 53 -18 107
-34 129 -37 271 -93 360 -141 l72 -38 53 46 c281 246 658 431 1033 507 236 48
543 56 777 20 148 -22 274 -56 505 -137 30 -10 38 -7 125 44 345 206 645 300
757 240z m590 -167 c1 -6 16 -15 34 -20 41 -13 41 -27 -2 -41 -28 -9 -37 -19
-46 -50 -13 -48 -26 -47 -40 2 -8 31 -17 39 -43 46 -41 11 -41 25 2 43 28 12
36 22 46 62 l12 48 18 -40 c10 -22 19 -45 19 -50z m-4592 -245 c118 -87 55
-282 -91 -284 -88 -1 -166 73 -166 158 0 53 33 112 78 136 51 28 135 23 179
-10z m2588 -15 c139 -22 214 -40 329 -81 178 -62 402 -187 526 -291 65 -56
107 -96 91 -87 -10 5 -12 3 -7 -5 5 -7 14 -10 22 -7 8 3 15 1 15 -4 1 -6 3
-14 4 -20 1 -5 3 -13 4 -17 1 -5 5 -3 9 4 5 9 12 6 21 -10 9 -15 9 -18 1 -10
-9 9 -20 2 -48 -28 -40 -43 -57 -50 -49 -18 4 16 3 18 -8 9 -13 -11 -10 -40 4
-40 4 0 8 -7 8 -15 0 -13 -4 -12 -21 2 -18 16 -17 14 3 -14 12 -18 28 -33 36
-33 7 0 15 -7 19 -15 9 -25 -8 -17 -45 21 -42 45 -217 189 -281 233 -79 53
-277 148 -378 181 -383 125 -742 118 -1137 -22 -535 -190 -936 -592 -1109
-1114 -27 -83 -64 -246 -64 -284 0 -4 -33 -12 -72 -19 -40 -7 -83 -14 -95 -18
-20 -4 -23 -1 -23 26 0 56 50 268 91 387 245 712 932 1238 1709 1308 86 8 345
-3 445 -19z m1675 -308 c9 -30 20 -41 51 -54 21 -8 39 -19 39 -23 0 -5 -19
-15 -42 -22 -39 -13 -44 -19 -52 -56 -11 -54 -31 -54 -42 0 -8 38 -13 43 -49
54 -48 13 -52 35 -10 49 41 14 55 24 55 40 0 26 21 68 29 59 5 -5 14 -26 21
-47z m-1797 -136 c16 -6 12 -13 -27 -45 -151 -124 -572 -362 -846 -479 -233
-99 -591 -219 -607 -203 -8 7 41 89 96 161 105 137 269 280 435 377 162 95
411 177 601 197 91 9 315 4 348 -8z m437 -129 c81 -42 193 -113 186 -119 -2
-2 -21 6 -42 18 l-39 22 29 -25 c20 -17 25 -27 18 -32 -7 -4 -12 -2 -12 5 0 6
-16 -5 -34 -25 -19 -20 -40 -35 -47 -34 -9 2 -12 -11 -10 -44 3 -49 -11 -62
-36 -37 -16 16 -43 3 -43 -20 0 -11 -8 -22 -19 -26 -10 -3 -26 -14 -36 -25
-16 -18 -17 -20 -2 -20 19 0 20 -2 11 -24 -8 -20 -32 -21 -36 -1 -2 12 -11 8
-38 -17 -19 -18 -38 -31 -42 -30 -5 1 -8 -4 -8 -12 0 -8 -15 -30 -34 -49 -19
-20 -34 -41 -33 -49 2 -45 -4 -58 -26 -58 -12 0 -28 -9 -35 -20 -7 -11 -19
-20 -27 -20 -8 0 -20 -8 -26 -19 -7 -11 -19 -16 -31 -13 -13 3 -18 -1 -18 -17
0 -11 6 -21 13 -22 10 0 10 -2 0 -6 -7 -2 -13 -15 -13 -29 0 -18 4 -22 18 -18
14 5 15 4 2 -5 -9 -6 -18 -7 -24 -1 -15 15 -29 12 -22 -5 3 -9 -3 -19 -14 -25
-11 -6 -20 -17 -20 -25 0 -8 -7 -15 -16 -15 -8 0 -13 -4 -9 -9 7 -12 -31 -25
-45 -16 -5 3 -10 0 -10 -8 0 -15 -20 -27 -43 -27 -7 0 -6 5 3 11 13 8 12 10
-4 7 -10 -2 -24 -12 -30 -23 -16 -29 -27 -35 -56 -30 -14 3 -19 2 -12 -1 17
-8 -9 -27 -64 -47 -21 -8 -90 -35 -152 -61 -148 -61 -332 -126 -488 -172 -202
-59 -425 -118 -678 -178 -18 -5 -19 1 -13 142 6 149 16 222 44 323 l15 56 86
18 c205 42 564 165 856 294 292 128 643 331 876 506 69 52 132 94 140 95 9 0
49 -17 90 -38z m1795 -113 c164 -22 275 -80 319 -164 30 -58 29 -154 -3 -220
-44 -89 -203 -237 -386 -357 -88 -58 -200 -127 -250 -153 -49 -27 -108 -58
-130 -70 -168 -91 -583 -272 -953 -416 -1055 -409 -2258 -746 -3053 -855 -177
-24 -479 -25 -579 -1 -189 44 -278 157 -236 299 53 185 340 429 710 606 111
53 272 115 287 110 5 -2 -80 -77 -188 -168 -350 -294 -459 -452 -378 -548 71
-85 308 -94 700 -26 921 158 2369 622 3305 1058 614 286 851 492 728 631 -62
71 -173 103 -388 112 -132 6 -384 -9 -484 -28 -42 -8 -51 -6 -62 8 -7 10 -14
23 -14 30 0 13 154 64 310 103 201 51 561 75 745 49z m-480 -384 c31 -30 32
-62 2 -106 -51 -77 -658 -354 -1297 -594 -661 -248 -1299 -444 -1877 -579
-309 -72 -728 -149 -770 -141 -36 6 -83 56 -83 86 0 33 28 76 57 88 15 6 93
24 173 40 746 152 1389 331 2127 592 461 163 776 291 1513 610 82 36 123 37
155 4z m-4470 -217 c8 -28 15 -57 15 -64 0 -6 12 -15 28 -19 15 -3 42 -14 60
-22 42 -20 30 -37 -38 -53 -49 -12 -49 -12 -60 -65 -15 -70 -34 -88 -48 -43
-6 18 -13 47 -17 65 -5 26 -12 33 -38 38 -57 11 -97 26 -97 36 0 13 78 48 107
49 16 0 23 8 28 33 11 56 26 97 35 97 5 0 16 -23 25 -52z m5113 -514 c77 -53
22 -179 -69 -159 -67 15 -94 114 -43 154 32 25 81 27 112 5z m362 6 c11 -6 26
-22 33 -37 14 -25 17 -26 95 -24 52 1 83 -2 87 -10 13 -21 -19 -30 -97 -27
-44 2 -78 -1 -78 -6 0 -5 -10 -20 -22 -33 -44 -47 -128 -21 -145 44 -16 68 64
127 127 93z m-5959 -86 c50 -54 11 -144 -62 -144 -28 0 -79 40 -79 61 0 5 -38
9 -84 9 -52 0 -88 4 -92 11 -12 19 19 29 95 29 67 0 75 2 93 26 38 47 89 51
129 8z m344 2 c91 -38 66 -166 -34 -166 -32 0 -44 6 -65 31 -14 17 -26 39 -26
50 0 31 29 79 53 89 30 12 33 12 72 -4z m5091 -445 c38 -23 50 -70 29 -110
-25 -49 -82 -56 -120 -15 -40 43 -30 100 23 128 34 19 31 19 68 -3z m-1775
-102 c-114 -51 -685 -254 -856 -304 -67 -20 -345 -100 -464 -134 -20 -6 -41
-7 -50 -1 -20 11 -40 4 219 75 443 123 870 260 1100 353 83 34 121 42 51 11z
m1460 -175 c103 -153 178 -318 220 -482 11 -45 19 -56 55 -77 113 -66 107
-233 -10 -286 -151 -69 -292 82 -215 232 11 22 33 48 50 57 16 9 29 21 29 25
0 17 -89 235 -125 307 -21 41 -59 110 -87 153 -27 44 -47 83 -46 86 2 3 14 23
27 44 28 46 33 43 102 -59z m-257 -527 c32 -15 102 -44 155 -64 53 -19 100
-39 104 -43 4 -4 -13 -24 -38 -44 l-45 -37 -87 32 c-90 32 -253 105 -253 111
0 3 17 23 37 45 23 26 43 39 52 35 8 -3 42 -19 75 -35z m-3849 -22 c34 -33 33
-77 -1 -104 -15 -12 -34 -21 -44 -21 -33 0 -70 39 -70 74 0 70 67 100 115 51z
m326 -261 l37 -36 -25 -57 c-41 -92 -83 -230 -83 -272 0 -56 34 -89 91 -89 92
0 377 117 567 233 51 31 96 57 100 57 4 0 29 -11 55 -24 l49 -24 -64 -45
c-128 -91 -375 -223 -528 -282 -115 -45 -201 -66 -269 -67 -78 -1 -115 20
-137 77 -15 40 -15 54 -5 118 7 39 26 113 42 162 32 93 118 285 128 285 3 0
22 -16 42 -36z m3028 -210 c25 -32 26 -46 6 -84 -32 -62 -126 -42 -133 29 -5
50 21 81 68 81 30 0 43 -6 59 -26z m-1284 -298 c53 -24 112 -83 141 -138 10
-18 19 -65 22 -106 4 -66 2 -78 -27 -136 -70 -143 -236 -195 -386 -121 -96 46
-148 133 -148 245 0 128 76 235 193 271 55 16 153 10 205 -15z m-762 -161 c21
-7 41 -16 44 -18 11 -11 -9 -27 -48 -37 -22 -6 -42 -16 -43 -23 -17 -62 -30
-97 -36 -97 -4 0 -14 26 -23 58 -16 56 -17 58 -59 67 -58 13 -57 36 4 54 42
13 47 18 53 50 4 20 12 44 17 55 10 18 13 13 32 -38 19 -52 25 -60 59 -71z
m1612 113 c27 -12 55 -54 55 -83 0 -54 -62 -102 -114 -89 -79 19 -88 144 -12
174 29 12 41 12 71 -2z m170 -403 c27 -26 33 -72 14 -106 -8 -15 -4 -34 15
-84 29 -70 31 -85 15 -85 -6 0 -25 32 -42 70 -26 58 -35 70 -55 70 -29 0 -82
51 -82 80 0 30 53 80 85 80 14 0 37 -11 50 -25z m-2155 -52 c13 -38 22 -47 54
-58 20 -7 40 -16 44 -19 10 -11 -14 -28 -50 -35 -30 -6 -34 -12 -47 -59 -8
-29 -18 -52 -22 -52 -5 0 -16 25 -24 55 -12 41 -21 55 -35 55 -10 0 -31 5 -45
10 -22 9 -25 13 -15 25 7 8 28 17 47 21 19 4 36 12 38 18 2 6 9 31 15 55 13
49 19 47 40 -16z m-600 -593 c54 -10 170 -58 170 -69 0 -4 -20 -31 -45 -60
-25 -29 -45 -57 -45 -61 0 -5 -24 2 -54 16 -68 31 -157 35 -187 8 -46 -41 -9
-68 122 -87 114 -17 156 -35 187 -82 45 -65 47 -136 5 -207 -53 -91 -206 -131
-357 -92 -64 16 -166 71 -166 89 1 5 21 32 46 59 l45 49 29 -17 c70 -41 168
-56 228 -35 35 12 46 32 32 60 -11 20 -17 22 -130 39 -108 16 -174 48 -199 99
-26 50 -27 122 -2 177 44 96 173 142 321 114z m790 -122 c227 -477 238 -503
227 -510 -7 -4 -42 -8 -80 -8 l-67 0 -27 55 -27 55 -152 0 -153 0 -25 -55 -25
-55 -80 0 c-45 0 -81 4 -81 10 0 5 20 51 44 102 24 51 81 172 126 268 45 96
91 194 101 218 l18 42 71 0 71 0 59 -122z m840 47 l0 -75 -99 0 -100 0 6 -218
c3 -120 3 -231 -1 -246 -6 -26 -8 -27 -79 -24 l-72 3 -3 243 -2 242 -99 0 -99
0 -7 65 c-3 35 -4 69 0 75 4 6 103 10 281 10 l274 0 0 -75z m332 -139 l3 -215
29 -30 c53 -55 145 -54 203 4 l33 33 0 211 0 211 80 0 80 0 0 -208 c0 -154 -4
-221 -15 -258 -32 -107 -124 -172 -254 -181 -142 -10 -244 43 -292 149 -22 49
-24 68 -27 276 l-4 222 80 0 81 0 3 -214z m1114 179 c32 -20 96 -86 184 -188
l135 -157 3 190 2 190 80 0 80 0 0 -320 0 -320 -63 0 -63 0 -125 146 c-68 81
-135 162 -148 180 l-24 34 -13 -36 c-15 -44 -60 -93 -92 -101 -29 -7 -27 -11
48 -123 33 -50 60 -92 60 -93 0 -6 -134 -8 -159 -2 -21 4 -42 27 -88 98 -80
122 -93 149 -93 192 l0 35 56 0 c81 0 123 28 124 82 0 15 -11 39 -24 55 -23
27 -28 28 -120 29 l-96 2 0 -249 0 -250 -77 3 -78 3 -3 318 -2 319 223 -4 224
-3 49 -30z m-3191 -870 c0 -14 -8 -21 -27 -23 -27 -3 -27 -4 -30 -85 -3 -76
-5 -82 -25 -85 -22 -3 -23 -1 -23 82 l0 86 -30 0 c-25 0 -30 4 -30 25 0 26 0
26 83 23 74 -3 82 -5 82 -23z m315 0 c0 -23 -4 -25 -46 -25 -38 0 -45 -3 -42
-17 2 -13 14 -19 41 -21 29 -3 37 -7 37 -23 0 -16 -7 -19 -40 -19 -33 0 -40
-3 -40 -20 0 -17 7 -20 45 -20 41 0 45 -2 45 -25 0 -24 -1 -24 -67 -21 l-68 3
-3 107 -3 106 71 0 c68 0 70 -1 70 -25z m320 0 c0 -23 -4 -25 -46 -25 -38 0
-45 -3 -42 -17 2 -13 14 -19 41 -21 29 -3 37 -7 37 -23 0 -16 -7 -19 -40 -19
-33 0 -40 -3 -40 -20 0 -17 7 -20 50 -20 33 0 50 -4 50 -12 0 -26 -17 -33 -77
-33 l-62 0 -3 103 c-2 57 -1 106 1 108 2 2 33 4 68 4 61 0 63 -1 63 -25z m325
13 c29 -13 32 -30 10 -48 -12 -10 -19 -10 -27 -2 -19 19 -56 14 -72 -10 -21
-30 -20 -51 3 -79 18 -22 22 -23 52 -12 29 11 36 11 52 -6 18 -18 18 -18 -16
-35 -43 -20 -60 -20 -96 -1 -70 36 -77 139 -12 182 38 26 67 29 106 11z m255
-26 c0 -21 2 -41 4 -43 3 -3 23 -3 45 -1 40 4 41 5 41 43 0 35 3 39 25 39 l25
0 0 -111 c0 -97 -2 -110 -16 -105 -9 3 -20 6 -25 6 -5 0 -9 18 -9 40 l0 40
-45 0 -45 0 0 -45 c0 -37 -3 -45 -19 -45 -27 0 -32 21 -30 127 1 91 2 93 25
93 21 0 24 -5 24 -38z m378 20 c9 -10 28 -34 42 -55 14 -20 28 -37 33 -37 4 0
7 25 7 55 0 52 1 55 25 55 25 0 25 0 25 -97 0 -54 -4 -104 -8 -111 -12 -18
-35 -7 -55 26 -19 31 -64 82 -72 82 -3 0 -5 -27 -5 -60 0 -53 -2 -60 -20 -60
-19 0 -20 7 -20 110 0 91 3 110 15 110 8 0 23 -8 33 -18z m438 -16 c58 -58 42
-141 -32 -172 -122 -51 -207 128 -92 193 43 23 87 16 124 -21z m891 14 c76
-46 61 -159 -26 -190 -39 -14 -45 -13 -79 5 -42 23 -68 78 -58 121 4 15 21 40
38 56 36 34 79 37 125 8z m358 8 c27 -12 32 -30 12 -46 -8 -7 -18 -7 -27 -2
-23 15 -57 12 -74 -6 -37 -36 -4 -110 45 -102 30 4 36 25 10 33 -46 14 -5 53
46 43 15 -3 18 -13 18 -58 l0 -55 -63 -3 c-58 -3 -65 -1 -92 27 -24 24 -30 38
-30 73 1 84 77 132 155 96z m255 -23 c12 -19 25 -35 29 -35 3 0 15 16 25 35
14 25 26 35 43 35 12 0 23 -3 23 -7 0 -3 -16 -34 -35 -69 -22 -39 -35 -76 -35
-98 0 -25 -4 -36 -15 -36 -8 0 -18 0 -22 0 -3 0 -8 19 -10 42 -3 24 -20 70
-40 105 l-35 63 25 0 c18 0 32 -10 47 -35z"/>
<path d="M5109 3616 c-98 -68 -90 -225 14 -275 53 -26 89 -26 143 -2 104 47
125 168 45 254 -36 38 -43 41 -102 45 -55 3 -69 0 -100 -22z"/>
<path d="M4197 2348 c-20 -50 -36 -92 -35 -93 2 -2 40 -5 86 -8 82 -6 83 -5
76 16 -13 46 -71 171 -80 174 -5 2 -26 -38 -47 -89z"/>
</g>
</svg>
